HIERARCHY
ROOT Hips
{
    OFFSET   0.000000   0.000000   0.000000
    CHANNELS 6 Xposition Yposition Zposition Zrotation Xrotation Yrotation
    JOINT Chest
    {
        OFFSET   0.000000   8.007230   0.000000
        CHANNELS 3 Zrotation Xrotation Yrotation
        JOINT Chest2
        {
            OFFSET   0.000000  22.077100   0.000000
            CHANNELS 3 Zrotation Xrotation Yrotation
            JOINT Neck
            {
                OFFSET   0.000000  23.254700   0.000000
                CHANNELS 3 Zrotation Xrotation Yrotation
                JOINT Head
                {
                    OFFSET   0.000010  14.370000   1.956610
                    CHANNELS 3 Zrotation Xrotation Yrotation
                    End Site
                    {
                        OFFSET   0.000000  19.566000   0.000000
                    }
                }
            }
            JOINT LeftCollar
            {
                OFFSET   3.911900  19.017000  -0.467063
                CHANNELS 3 Zrotation Xrotation Yrotation
                JOINT LeftShoulder
                {
                    OFFSET  10.383700   0.000000   0.000000
                    CHANNELS 3 Zrotation Xrotation Yrotation
                    JOINT LeftElbow
                    {
                        OFFSET  26.662100   0.001671   0.000522
                        CHANNELS 3 Zrotation Xrotation Yrotation
                        JOINT LeftWrist
                        {
                            OFFSET  28.869000   0.000037  -0.000114
                            CHANNELS 3 Zrotation Xrotation Yrotation
                            JOINT LeftFinger0
                            {
                                OFFSET   2.044650  -2.323450   3.252850
                                CHANNELS 3 Zrotation Xrotation Yrotation
                                JOINT LeftFinger01
                                {
                                    OFFSET   3.088140   0.000000   0.000000
                                    CHANNELS 3 Zrotation Xrotation Yrotation
                                    JOINT LeftFinger02
                                    {
                                        OFFSET   2.639460   0.000000   0.000000
                                        CHANNELS 3 Zrotation Xrotation Yrotation
                                        End Site
                                        {
                                            OFFSET   2.582190   0.000000   0.000000
                                        }
                                    }
                                }
                            }
                            JOINT LeftFinger1
                            {
                                OFFSET   8.364480   0.000000   3.252850
                                CHANNELS 3 Zrotation Xrotation Yrotation
                                JOINT LeftFinger11
                                {
                                    OFFSET   4.646930   0.000000   0.000000
                                    CHANNELS 3 Zrotation Xrotation Yrotation
                                    JOINT LeftFinger12
                                    {
                                        OFFSET   2.323470   0.000000   0.000000
                                        CHANNELS 3 Zrotation Xrotation Yrotation
                                        End Site
                                        {
                                            OFFSET   2.273050   0.000000   0.000000
                                        }
                                    }
                                }
                            }
                            JOINT LeftFinger2
                            {
                                OFFSET   8.364490   0.000016   1.078090
                                CHANNELS 3 Zrotation Xrotation Yrotation
                                JOINT LeftFinger21
                                {
                                    OFFSET   5.111620   0.000000   0.000000
                                    CHANNELS 3 Zrotation Xrotation Yrotation
                                    JOINT LeftFinger22
                                    {
                                        OFFSET   2.788150   0.000013   0.000000
                                        CHANNELS 3 Zrotation Xrotation Yrotation
                                        End Site
                                        {
                                            OFFSET   2.727660   0.000000   0.000000
                                        }
                                    }
                                }
                            }
                            JOINT LeftFinger3
                            {
                                OFFSET   7.899780   0.000016  -1.078090
                                CHANNELS 3 Zrotation Xrotation Yrotation
                                JOINT LeftFinger31
                                {
                                    OFFSET   4.646930   0.000000   0.000000
                                    CHANNELS 3 Zrotation Xrotation Yrotation
                                    JOINT LeftFinger32
                                    {
                                        OFFSET   2.323470   0.000000   0.000000
                                        CHANNELS 3 Zrotation Xrotation Yrotation
                                        End Site
                                        {
                                            OFFSET   2.273050   0.000000   0.000000
                                        }
                                    }
                                }
                            }
                            JOINT LeftFinger4
                            {
                                OFFSET   7.435080   0.000000  -3.252850
                                CHANNELS 3 Zrotation Xrotation Yrotation
                                JOINT LeftFinger41
                                {
                                    OFFSET   3.717550   0.000000   0.000000
                                    CHANNELS 3 Zrotation Xrotation Yrotation
                                    JOINT LeftFinger42
                                    {
                                        OFFSET   1.858760   0.000000   0.000000
                                        CHANNELS 3 Zrotation Xrotation Yrotation
                                        End Site
                                        {
                                            OFFSET   1.818440   0.000000   0.000000
                                        }
                                    }
                                }
                            }
                        }
                    }
                }
            }
            JOINT RightCollar
            {
                OFFSET  -3.911900  19.017000  -0.467064
                CHANNELS 3 Zrotation Xrotation Yrotation
                JOINT RightShoulder
                {
                    OFFSET -10.383700   0.000000   0.000000
                    CHANNELS 3 Zrotation Xrotation Yrotation
                    JOINT RightElbow
                    {
                        OFFSET -26.662100   0.001633   0.000260
                        CHANNELS 3 Zrotation Xrotation Yrotation
                        JOINT RightWrist
                        {
                            OFFSET -28.869000  -0.000045  -0.000080
                            CHANNELS 3 Zrotation Xrotation Yrotation
                            JOINT RightFinger0
                            {
                                OFFSET  -2.044660  -2.323490   3.252850
                                CHANNELS 3 Zrotation Xrotation Yrotation
                                JOINT RightFinger01
                                {
                                    OFFSET  -3.088140   0.000000   0.000000
                                    CHANNELS 3 Zrotation Xrotation Yrotation
                                    JOINT RightFinger02
                                    {
                                        OFFSET  -2.639450   0.000000   0.000000
                                        CHANNELS 3 Zrotation Xrotation Yrotation
                                        End Site
                                        {
                                            OFFSET  -2.582190   0.000000   0.000000
                                        }
                                    }
                                }
                            }
                            JOINT RightFinger1
                            {
                                OFFSET  -8.364480   0.000000   3.252850
                                CHANNELS 3 Zrotation Xrotation Yrotation
                                JOINT RightFinger11
                                {
                                    OFFSET  -4.646920   0.000000   0.000000
                                    CHANNELS 3 Zrotation Xrotation Yrotation
                                    JOINT RightFinger12
                                    {
                                        OFFSET  -2.323470   0.000000   0.000000
                                        CHANNELS 3 Zrotation Xrotation Yrotation
                                        End Site
                                        {
                                            OFFSET  -2.273050   0.000000   0.000000
                                        }
                                    }
                                }
                            }
                            JOINT RightFinger2
                            {
                                OFFSET  -8.364480   0.000000   1.078090
                                CHANNELS 3 Zrotation Xrotation Yrotation
                                JOINT RightFinger21
                                {
                                    OFFSET  -5.111610   0.000000   0.000000
                                    CHANNELS 3 Zrotation Xrotation Yrotation
                                    JOINT RightFinger22
                                    {
                                        OFFSET  -2.788160   0.000000   0.000000
                                        CHANNELS 3 Zrotation Xrotation Yrotation
                                        End Site
                                        {
                                            OFFSET  -2.727660   0.000000   0.000000
                                        }
                                    }
                                }
                            }
                            JOINT RightFinger3
                            {
                                OFFSET  -7.899780   0.000000  -1.078090
                                CHANNELS 3 Zrotation Xrotation Yrotation
                                JOINT RightFinger31
                                {
                                    OFFSET  -4.646930   0.000000   0.000000
                                    CHANNELS 3 Zrotation Xrotation Yrotation
                                    JOINT RightFinger32
                                    {
                                        OFFSET  -2.323470   0.000000   0.000000
                                        CHANNELS 3 Zrotation Xrotation Yrotation
                                        End Site
                                        {
                                            OFFSET  -2.273050   0.000000   0.000000
                                        }
                                    }
                                }
                            }
                            JOINT RightFinger4
                            {
                                OFFSET  -7.435090   0.000000  -3.252850
                                CHANNELS 3 Zrotation Xrotation Yrotation
                                JOINT RightFinger41
                                {
                                    OFFSET  -3.717550   0.000000   0.000000
                                    CHANNELS 3 Zrotation Xrotation Yrotation
                                    JOINT RightFinger42
                                    {
                                        OFFSET  -1.858760   0.000000   0.000000
                                        CHANNELS 3 Zrotation Xrotation Yrotation
                                        End Site
                                        {
                                            OFFSET  -1.818440   0.000000   0.000000
                                        }
                                    }
                                }
                            }
                        }
                    }
                }
            }
        }
    }
    JOINT LeftHip
    {
        OFFSET   9.782990   0.000000   0.000000
        CHANNELS 3 Zrotation Xrotation Yrotation
        JOINT LeftKnee
        {
            OFFSET  -0.000063 -41.789100   0.001657
            CHANNELS 3 Zrotation Xrotation Yrotation
            JOINT LeftAnkle
            {
                OFFSET   0.000078 -41.133200  -0.000113
                CHANNELS 3 Zrotation Xrotation Yrotation
                JOINT LeftToe
                {
                    OFFSET   0.000000  -6.358970  14.674500
                    CHANNELS 3 Zrotation Xrotation Yrotation
                    End Site
                    {
                        OFFSET   0.000000   0.000000   3.913200
                    }
                }
            }
        }
    }
    JOINT RightHip
    {
        OFFSET  -9.782990   0.000000   0.000000
        CHANNELS 3 Zrotation Xrotation Yrotation
        JOINT RightKnee
        {
            OFFSET   0.000053 -41.789200   0.000277
            CHANNELS 3 Zrotation Xrotation Yrotation
            JOINT RightAnkle
            {
                OFFSET   0.000030 -41.133200  -0.000150
                CHANNELS 3 Zrotation Xrotation Yrotation
                JOINT RightToe
                {
                    OFFSET   0.000000  -6.358960  14.674500
                    CHANNELS 3 Zrotation Xrotation Yrotation
                    End Site
                    {
                        OFFSET   0.000000   0.000000   3.913200
                    }
                }
            }
        }
    }
}
MOTION
Frames: 6
Frame Time:   0.016667
  0.957004  89.617200  -1.173500  -5.469780 -14.773100  -4.209070   0.242518   7.773020   0.656996   0.399704  15.548300   1.298630   2.838580  -2.567130   0.125873   4.689970  -5.167700  -2.564530  -2.625570  -1.631300  -0.661405 -73.765800  22.352800  -9.098550  -1.033370  -6.482490 -12.270500  10.824700  -2.108220   3.112040  38.242400  27.505600 -56.278800 -29.422500   0.006491   0.003658  -9.711240   0.002723  -0.000836 -21.056100   2.820730  -7.284900 -17.374600   0.002485   0.000000 -12.162200   0.000848  -0.005577 -26.881000  -0.127473   0.249624 -26.875800   0.003130  -0.002717 -17.899300   0.002674   0.003749 -24.307300  -0.115797   0.255234 -24.305700   0.008164  -0.006826 -16.187600   0.005773   0.001801 -23.146600  -0.110588   0.257770 -34.717500   0.003413  -0.009392 -23.121900   0.001305   0.004803   4.107590  -6.211890   6.374470  -5.252800 -10.488300  28.748100 -41.377900  -1.091050  36.682500  60.384600  10.292100  10.705100 -39.434700  41.129500  82.050900  37.825400  -0.004824   0.003752  13.912700  -0.000349   0.005777  19.313400   8.468520  22.554900  17.203000   0.082216  -0.028843  12.042100   0.052660  -0.030843  89.002800   0.000567   0.007843  98.543500   0.038524   0.007486  73.907600   0.013206  -0.026306  88.996100  -4.992710  -0.089047  97.997000  -0.082685  -0.018578  73.497800  -0.031499   0.055212  88.983700  -9.995780  -0.181651 110.000000  -0.001220  -0.001410  80.000000   0.001206  -0.009570   3.469070  17.248500   4.594320   0.717913   0.053997   3.534020  -1.635600  -3.134820   0.651520  -0.000000   0.000000   0.000000   6.166430  13.241000  -0.069168  -4.058780   7.214790  -5.269290   2.150600  -5.730940   2.552890  -0.000000   0.000000  -0.000000
  0.912899  89.606800  -1.146720  -5.555830 -14.734400  -4.554100   0.283769   7.796460   0.609121   0.489865  15.595500   1.195710   2.727570  -2.673690   0.126477   4.508260  -5.385190  -2.269660  -2.638830  -1.679590  -0.646281 -73.848400  22.112300  -8.842120  -1.140240  -6.432300 -12.039700  10.691000  -1.934710   3.153720  38.137800  27.562400 -56.379500 -29.598800   0.006574   0.003750  -9.799410   0.002803  -0.000834 -21.032000   2.811030  -7.270900 -17.354100   0.002496   0.000000 -12.147900   0.000943  -0.005590 -26.966200  -0.207579   0.407153 -26.981900   0.003205  -0.002778 -17.970000   0.002734   0.003751 -24.370000  -0.188382   0.416069 -24.370000   0.008099  -0.006955 -16.230400   0.005779   0.001804 -23.166600  -0.179895   0.420152 -34.749900   0.003369  -0.009529 -23.143500   0.001317   0.004741   4.204300  -6.303360   6.473390  -6.174900  -9.627400  28.149800 -41.732500  -2.094140  36.969600  62.530300   7.325230  18.081800 -39.397100  41.290600  81.999400  38.100100  -0.001299   0.001792  14.050100   0.000967   0.004430  18.289800   8.091060  23.042400  16.344100   0.074095  -0.027344  11.440900   0.047363  -0.028539  89.002800   0.000650   0.008030  98.667200   0.047436   0.009990  73.969600   0.017487  -0.039023  88.996100  -4.992230  -0.089151  96.911800  -0.051188  -0.011185  72.683800  -0.019372   0.034197  88.983700  -9.995750  -0.181669 110.000000  -0.001244  -0.001373  80.000000   0.001108  -0.009668   3.473180  17.291000   4.658500   0.721167   0.062037   3.685690  -1.623220  -3.195040   0.771700  -0.000000   0.000000   0.000000   6.205820  13.200400  -0.035112  -4.108110   7.232690  -5.085730   2.150490  -5.725260   2.671220  -0.000000   0.000000  -0.000000
  0.871538  89.592700  -1.119330  -5.650850 -14.693500  -4.936420   0.333985   7.821890   0.551103   0.599700  15.646600   1.070900   2.619000  -2.774840   0.127020   4.330830  -5.591800  -1.893050  -2.651240  -1.719290  -0.610112 -73.901500  21.971200  -8.623960  -1.259450  -6.430580 -11.773600  10.536700  -1.750920   3.167640  38.089900  27.533500 -56.474300 -29.677600   0.006656   0.003843  -9.838790   0.002884  -0.000832 -20.980300   2.796910  -7.252130 -17.310700   0.002506   0.000000 -12.117500   0.001039  -0.005602 -27.038300  -0.237527   0.466049 -27.070300   0.003280  -0.002840 -18.028800   0.002793   0.003754 -24.432100  -0.215468   0.476144 -24.433100   0.008033  -0.007083 -16.272400   0.005787   0.001807 -23.175000  -0.205773   0.480827 -34.763900   0.003325  -0.009667 -23.152800   0.001331   0.004680   4.264020  -6.399940   6.587770  -6.929620  -9.059250  27.895100 -42.131800  -3.288980  37.170800  63.890900   4.721890  24.706100 -39.314300  41.446200  81.913100  38.585400   0.002227  -0.001666  14.292700   0.002282   0.002513  16.617400   7.486100  23.389800  14.876900   0.060603  -0.025174  10.413800   0.038609  -0.024873  89.002700   0.000732   0.008213  99.298300   0.057977   0.011681  74.403700   0.019196  -0.046281  88.996000  -4.991760  -0.089248  95.946600  -0.019690  -0.003793  71.959900  -0.007246   0.013182  88.983700  -9.995720  -0.181685 110.000000  -0.001261  -0.001346  80.000000   0.001016  -0.009765   3.474550  17.334200   4.724790   0.724639   0.070679   3.857440  -1.608330  -3.261450   0.906592   0.000000   0.000000   0.000000   6.244590  13.156400   0.000662  -4.160450   7.248660  -4.884910   2.149970  -5.711570   2.808730   0.000000   0.000000  -0.000000
  0.835924  89.573900  -1.093220  -5.744730 -14.647700  -5.344560   0.387492   7.847490   0.488737   0.716874  15.697800   0.936692   2.522840  -2.870650   0.127540   4.173380  -5.787350  -1.457530  -2.666850  -1.748920  -0.554781 -73.927100  21.918000  -8.446300  -1.390520  -6.487290 -11.470600  10.398600  -1.588410   3.121930  37.994300  27.192900 -56.395800 -29.577700   0.006740   0.003885  -9.788850   0.002975  -0.000840 -20.913700   2.765700  -7.203170 -17.254100   0.002520   0.000000 -12.077900   0.001132  -0.005610 -27.064600  -0.152623   0.298403 -27.095400   0.003353  -0.002895 -18.045500   0.002845   0.003745 -24.490000  -0.138196   0.304462 -24.489900   0.007969  -0.007207 -16.310300   0.005789   0.001806 -23.146000  -0.131916   0.307814 -34.718600   0.003279  -0.009812 -23.122600   0.001347   0.004621   4.287140  -6.499130   6.684730  -7.525370  -8.868010  27.902300 -42.447300  -4.628080  37.336500  64.458900   2.555210  30.021900 -39.068000  41.302600  81.602800  39.152700  -0.004099  -0.005184  14.576300  -0.002405   0.001589  15.103100   6.958370  24.017800  13.578300   0.047236  -0.023989   9.504810   0.030082  -0.021730  89.002700   0.000807   0.008402 100.668000   0.086514   0.013852  75.889300   0.015032  -0.037879  88.996000  -4.991320  -0.089335  95.798600  -0.024439  -0.007570  71.848900  -0.011149   0.015593  88.983700  -9.995700  -0.181713 110.000000  -0.001261  -0.001342  80.000000   0.000939  -0.009860   3.464390  17.378300   4.784840   0.730204   0.071372   4.053510  -1.593570  -3.323690   1.051630  -0.000000   0.000000   0.000000   6.270970  13.106600   0.031391  -4.209540   7.260210  -4.673060   2.150950  -5.692520   2.969820  -0.000000   0.000000   0.000000
  0.803673  89.552600  -1.068880  -5.837740 -14.592400  -5.768680   0.444748   7.861990   0.425537   0.841957  15.726900   0.800240   2.444830  -2.952280   0.128062   4.046320  -5.953870  -0.991963  -2.688730  -1.762200  -0.493108 -73.931800  21.916100  -8.307940  -1.520990  -6.605050 -11.147800  10.280900  -1.392440   3.076210  37.881300  26.877500 -56.279400 -29.477800   0.006825   0.003920  -9.738900   0.003066  -0.000851 -20.838700   2.744060  -7.168740 -17.191400   0.002535  -0.000000 -12.034000   0.001226  -0.005618 -27.068800  -0.065062   0.125991 -27.099000   0.003427  -0.002951 -18.047900   0.002896   0.003737 -24.520800  -0.058693   0.128095 -24.519900   0.007906  -0.007332 -16.330300   0.005791   0.001805 -23.088200  -0.055688   0.129925 -34.631200   0.003233  -0.009959 -23.064400   0.001364   0.004560   4.308470  -6.591590   6.774760  -8.093080  -8.827990  28.060900 -42.599300  -6.049660  37.464900  64.735600   0.471297  34.386500 -38.868400  41.163100  81.329400  39.509500  -0.012525  -0.008223  14.754700  -0.007091   0.001209  13.658400   6.453990  24.651100  12.336500   0.039242  -0.023475   8.635560   0.025012  -0.019949  89.002600   0.000882   0.008589 102.603000   0.106549   0.015075  77.739000   0.008338  -0.023338  88.996100  -4.990880  -0.089413  95.686300  -0.033473  -0.013923  71.764700  -0.017982   0.020363  88.983700  -9.995690  -0.181740 110.000000  -0.001261  -0.001339  80.000000   0.000863  -0.009953   3.447900  17.419300   4.839210   0.736817   0.071454   4.262900  -1.576920  -3.378960   1.206820  -0.000000   0.000000   0.000000   6.290780  13.050700   0.063602  -4.255740   7.266340  -4.458060   2.153930  -5.664880   3.146160   0.000000   0.000000  -0.000000
  0.775002  89.529900  -1.048010  -5.931890 -14.519400  -6.199090   0.507174   7.857580   0.360261   0.977571  15.718100   0.661417   2.392070  -3.011990   0.128612   3.951000  -6.075640  -0.512979  -2.727010  -1.739930  -0.428406 -73.915900  21.996600  -8.209990  -1.631140  -6.761110 -10.813000  10.197100  -1.075630   3.126830  37.883900  26.953200 -56.332800 -29.516800   0.006904   0.003984  -9.758400   0.003154  -0.000853 -20.765000   2.752330  -7.211260 -17.132500   0.002549   0.000000 -11.992700   0.001322  -0.005632 -27.001100  -0.063293   0.122813 -27.016600   0.003505  -0.003012 -17.993000   0.002953   0.003738 -24.519500  -0.057208   0.124970 -24.518800   0.007843  -0.007463 -16.329600   0.005798   0.001810 -23.020300  -0.054109   0.126673 -34.530200   0.003189  -0.010100 -22.997100   0.001385   0.004492   4.270130  -6.663490   6.874990  -8.502470  -9.131460  28.542000 -42.471500  -7.519860  37.318300  64.456300  -1.785670  37.936800 -39.016400  41.351800  81.555700  39.356500  -0.014976  -0.009527  14.678400  -0.007070   0.001179  12.628700   6.092580  25.075800  11.445800   0.056375  -0.037280   8.012040   0.036238  -0.030446  89.002600   0.000961   0.008766 105.298000   0.095293   0.012724  79.383700   0.002398  -0.007184  88.996000  -4.990440  -0.089479  95.298500  -0.045872  -0.020452  71.473900  -0.025802   0.027393  88.983700  -9.995670  -0.181757 110.000000  -0.001268  -0.001324  80.000000   0.000773  -0.010043   3.425140  17.458800   4.885570   0.746852   0.037073   4.478430  -1.556450  -3.413870   1.373170  -0.000000   0.000000   0.000000   6.304710  12.984400   0.103165  -4.298010   7.258710  -4.246440   2.160500  -5.624970   3.330720   0.000000   0.000000   0.000000
